<svg xmlns="http://www.w3.org/2000/svg" viewBox="0 0 443.74 443.74"><path d="M160.92,158.79c-2.53,11-19.88,17.52-44.2,16.71-12-.41-22.59-3.41-33.79-6.59-13.62-3.86-29.05-8.24-48.8-8.24V34.13H160.67c0,11.87-5.28,15.32-17.21,22-10.74,6-24.1,13.48-29.55,31.88-8.29,28,13.4,39.06,27.76,46.36C158.18,142.76,163.7,146.77,160.92,158.79Z" transform="translate(-34.13 -34.13)" style="fill:#231f20"/><path d="M238.93,34.13v204.8H34.13V180.67c17,0,30.37,3.8,43.34,7.48,11.86,3.37,24.13,6.85,38.58,7.33,1.59.06,3.16.08,4.71.08,32.78,0,54.94-11.89,59.65-32.26,6.55-28.33-15.25-39.42-29.68-46.76-16.95-8.62-20.79-12.21-17.64-22.85s10.64-14.79,20.14-20.11c12.22-6.84,27.44-15.35,27.44-39.45Z" transform="translate(-34.13 -34.13)" style="fill:#231f20"/><path d="M424.88,157c-.83,1.12-1.77,1.79-4,1.71-2.92-.12-4.8-2.36-8.72-7.83-4.66-6.5-12.45-17.38-27.52-14.46-17,3.28-20.36,18.35-22.58,28.33-2.34,10.51-3.74,13.75-8.44,14.94-2.6.66-3.93.1-9.8-9.14-5.11-8.05-12.11-19.08-26-19.08-10.08,0-16.87,2.55-22.85,4.81s-11.67,4.39-21.9,4.39V34.13H399.6c0,28.46,10.94,56.56,18.93,77.08,2.16,5.56,4.2,10.81,5.68,15.2C429,140.65,428.19,152.58,424.88,157Z" transform="translate(-34.13 -34.13)" style="fill:#231f20"/><path d="M477.87,34.13v204.8H273.07V180.67c13.87,0,22.22-3.15,28.94-5.67,5.23-2,9.37-3.53,15.81-3.53,2.73,0,5.4,3.88,9.16,9.8,4.59,7.22,11.85,18.66,25.11,18.65a26.15,26.15,0,0,0,6.49-.85c17.34-4.39,20.77-19.79,23-30s3.42-12.39,6.85-13c1.81-.35,2.49-.48,7.47,6.48,4.46,6.23,11.21,15.64,24.18,16.16A24,24,0,0,0,440.9,169c8.11-10.84,9-29.15,2.26-49-1.62-4.82-3.75-10.28-6-16.05-7.82-20.11-17.56-45.12-17.56-69.83Z" transform="translate(-34.13 -34.13)" style="fill:#231f20"/><path d="M379.68,368.87c-27.83,31.71-58.77,31.31-94.57,30.84-3.93,0-8-.1-12-.11V273.07H399.6v1.61C399.61,306.52,399.61,346.15,379.68,368.87Z" transform="translate(-34.13 -34.13)" style="fill:#231f20"/><path d="M477.87,273.07v204.8H273.07V419.6c3.92,0,7.92.06,11.78.11,4.17.05,8.35.11,12.55.11,33.36,0,67.19-3.44,97.31-37.76,24.9-28.38,24.9-72.18,24.89-107.38v-1.61Z" transform="translate(-34.13 -34.13)" style="fill:#231f20"/><path d="M168.87,412.38c-9.85,5.82-22.88,5-35.47.11a42.37,42.37,0,0,0,11-7.47c6.89-6.58,10.39-15,10.39-25.14,0-16-10.71-29.69-27.95-35.83-20.86-7.42-38.44-.64-46.6,9.38C70,366.12,72.42,384,86.84,401.59c-11.29.19-22.82-.36-32.47-.81-7.4-.35-14.4-.68-20.24-.68v-127h127c0,11.49,3.77,27.32,8.14,45.65C177.55,353.27,188.83,400.58,168.87,412.38Z" transform="translate(-34.13 -34.13)" style="fill:#231f20"/><path d="M238.93,273.07v204.8H34.13V419.1c5.39,0,12.17.32,19.35.66,16.9.79,36,1.69,53-.29A97.9,97.9,0,0,0,129,431.07a71.3,71.3,0,0,0,23.81,4.36,50.11,50.11,0,0,0,25.76-6.7c32-18.92,19.4-71.87,9.25-114.42-3.92-16.45-7.62-32-7.62-41.24Z" transform="translate(-34.13 -34.13)" style="fill:#231f20"/><path d="M135.84,379.88c0,4.84-1.43,8.46-4.5,11.39C127,395.39,120,398,111.52,399.51a76.09,76.09,0,0,1-9-8.82c-7-8.1-12.59-19-7.48-25.26,2.87-3.52,8.32-5.41,14.49-5.41a33.24,33.24,0,0,1,11,1.93C124.11,363.23,135.84,368.31,135.84,379.88Z" transform="translate(-34.13 -34.13)" style="fill:#231f20"/></svg>