<svg xmlns="http://www.w3.org/2000/svg" viewBox="0 0 921.62 204.8">
    <path d="M655.86,261.19c-2.53,11-19.88,17.52-44.2,16.71-12-.41-22.59-3.41-33.79-6.59-13.62-3.86-29-8.24-48.8-8.24V136.53H655.61c0,11.87-5.28,15.32-17.21,22-10.74,6-24.1,13.48-29.55,31.88-8.29,28,13.4,39.06,27.76,46.36C653.12,245.16,658.64,249.17,655.86,261.19Z" transform="translate(-51.19 -136.53)" style="fill:currentColor"/>
    <path d="M733.87,136.53v204.8H529.07V283.07c17,0,30.37,3.8,43.34,7.48,11.86,3.37,24.13,6.85,38.58,7.33,1.59.06,3.16.08,4.71.08,32.78,0,54.94-11.89,59.65-32.26,6.55-28.33-15.25-39.42-29.68-46.76-16.95-8.62-20.79-12.21-17.64-22.85S638.67,181.3,648.17,176c12.22-6.84,27.44-15.35,27.44-39.45Z" transform="translate(-51.19 -136.53)" style="fill:currentColor"/>
    <path d="M919.82,259.4c-.83,1.12-1.77,1.79-4,1.71-2.92-.12-4.8-2.36-8.72-7.83-4.66-6.5-12.45-17.38-27.52-14.46-17,3.28-20.36,18.35-22.58,28.33-2.34,10.51-3.74,13.75-8.44,14.94-2.6.66-3.93.1-9.8-9.14-5.11-8.05-12.11-19.08-26-19.08-10.08,0-16.87,2.55-22.85,4.81s-11.67,4.39-21.9,4.39V136.53H894.54c0,28.46,10.94,56.56,18.93,77.08,2.16,5.56,4.2,10.81,5.68,15.2C924,243.05,923.13,255,919.82,259.4Z" transform="translate(-51.19 -136.53)" style="fill:currentColor"/>
    <path d="M972.81,136.53v204.8H768V283.07c13.87,0,22.22-3.15,28.94-5.67,5.23-2,9.37-3.53,15.81-3.53,2.73,0,5.4,3.88,9.16,9.8,4.59,7.22,11.85,18.66,25.11,18.65a26.15,26.15,0,0,0,6.49-.85c17.34-4.39,20.77-19.79,23-30s3.42-12.39,6.85-13.05c1.81-.35,2.49-.48,7.47,6.48,4.46,6.23,11.21,15.64,24.18,16.16a24,24,0,0,0,20.78-9.71c8.11-10.84,9-29.15,2.26-49-1.62-4.82-3.75-10.28-6-16-7.82-20.11-17.56-45.12-17.56-69.83Z" transform="translate(-51.19 -136.53)" style="fill:currentColor"/>
    <path d="M396.74,232.33C368.91,264,338,263.64,302.17,263.17c-3.93-.05-8-.1-12-.11V136.53H416.66v1.61C416.67,170,416.67,209.61,396.74,232.33Z" transform="translate(-51.19 -136.53)" style="fill:currentColor"/>
    <path d="M494.93,136.53v204.8H290.13V283.06c3.92,0,7.92.06,11.78.11,4.17.05,8.35.11,12.55.11,33.36,0,67.19-3.44,97.31-37.76,24.9-28.38,24.9-72.18,24.89-107.38v-1.61Z" transform="translate(-51.19 -136.53)" style="fill:currentColor"/>
    <path d="M185.93,275.84c-9.85,5.82-22.88,5-35.47.11a42.37,42.37,0,0,0,11-7.47c6.89-6.58,10.39-15,10.39-25.14,0-16-10.71-29.69-28-35.83-20.86-7.42-38.44-.64-46.6,9.38-10.34,12.69-7.87,30.59,6.55,48.16-11.29.19-22.82-.36-32.47-.81-7.4-.35-14.4-.68-20.24-.68v-127h127c0,11.49,3.77,27.32,8.14,45.65C194.61,216.73,205.89,264,185.93,275.84Z" transform="translate(-51.19 -136.53)" style="fill:currentColor"/>
    <path d="M256,136.53v204.8H51.19V282.56c5.39,0,12.17.32,19.35.66,16.9.79,36,1.69,53-.29A97.9,97.9,0,0,0,146,294.53a71.3,71.3,0,0,0,23.81,4.36,50.11,50.11,0,0,0,25.76-6.7c32-18.92,19.4-71.87,9.25-114.42-3.92-16.45-7.62-32-7.62-41.24Z" transform="translate(-51.19 -136.53)" style="fill:currentColor"/>
    <path d="M152.9,243.34c0,4.84-1.43,8.46-4.5,11.39-4.32,4.12-11.38,6.69-19.82,8.24a76.09,76.09,0,0,1-9-8.82c-7-8.1-12.59-19-7.48-25.26,2.87-3.52,8.32-5.41,14.49-5.41a33.24,33.24,0,0,1,11,1.93C141.17,226.69,152.9,231.77,152.9,243.34Z" transform="translate(-51.19 -136.53)" style="fill:currentColor"/>
</svg>